<svg id="_x33_0" enable-background="new 0 0 64 64" height="512" viewBox="0 0 64 64" width="512" xmlns="http://www.w3.org/2000/svg"><g><path d="m61 1h-50.172c-2.11 0-3.828 1.717-3.828 3.829 0 1.022.398 1.983 1.121 2.707l.311.311c-1.526 1.082-2.432 2.829-2.432 4.708 0 .851.195 1.684.554 2.449-.343.59-.554 1.266-.554 1.996 0 2.206 1.794 4 4 4h.263c.498 1.923 1.686 3.57 3.294 4.648l-.369 1.473-4.668.778c-4.357.727-7.52 4.46-7.52 8.878v10.223c0 3.309 2.691 6 6 6v10h22v-19.297l2.794 3.26c1.11 1.295 2.726 2.037 4.431 2.037 1.731 0 3.306-.764 4.387-2h20.388c1.103 0 2-.897 2-2v-42c0-1.103-.897-2-2-2zm-53 16c0-1.103.897-2 2-2v4c-1.103 0-2-.897-2-2zm2.101-4h-.101c-.682 0-1.314.187-1.877.489-.078-.304-.123-.617-.123-.934 0-1.265.628-2.438 1.681-3.14l1.889-1.26-2.035-2.033c-.345-.346-.535-.805-.535-1.293 0-1.009.82-1.829 1.828-1.829h9.568c4.193 0 7.604 3.411 7.604 7.604 0 .818-.131 1.627-.391 2.405l-.097.292c-.467-.191-.977-.301-1.512-.301h-1-4.092c-1.603 0-2.908-1.305-2.908-2.908 0-.975.484-1.879 1.295-2.42l1.26-.84-1.109-1.664-1.26.84c-1.06.706-1.788 1.78-2.063 2.992h-1.123c-2.414 0-4.434 1.721-4.899 4zm24.957 8h3.942v2.059c-1.108.183-2.035.873-2.553 1.826-.758-1.166-1.236-2.486-1.389-3.885zm11.914 7.492c.012-.126.028-.252.028-.379 0-1.408-.795-2.651-2-3.277v-3.031l6.039 3.775c-1.043 1.315-2.443 2.341-4.067 2.912zm-3.972-7.938v3.089c-.475-.395-1.078-.643-1.743-.643h-.257v-3c0-.551.448-1 1-1s1 .449 1 1zm9.108 3.334-7.108-4.442v-8.387c4.493.5 8 4.317 8 8.941 0 1.382-.32 2.703-.892 3.888zm-9.108-6.704c-.314-.112-.648-.184-1-.184-1.302 0-2.402.839-2.816 2h-4.125c.463-4.164 3.776-7.478 7.941-7.941zm-4.21 12.026-.709-2.129c-.054-.162-.081-.33-.081-.5 0-.872.709-1.581 1.581-1.581h1.676c.41 0 .743.333.743.744 0 .32-.204.604-.509.705l-1.808.603.633 1.897 1.808-.603c.863-.288 1.504-.974 1.756-1.813.662.246 1.12.859 1.12 1.58 0 .383-.112.753-.324 1.071l-1.084 1.626zm6.138 3.201 1.07-1.605c1.065-.196 2.072-.543 3.002-1.022v5.216h6v-2h-4v-4.534c2.45-2.037 4-5.103 4-8.466 0-6.065-4.935-11-11-11s-11 4.935-11 11c0 2.93 1.137 5.66 3.191 7.733l.771 2.315-1.472 6.379-2.633-4.514c-1.09-1.869-2.838-3.268-4.857-3.966v-7.503c1.19-.694 2-1.97 2-3.444 0-.901-.31-1.723-.814-2.393l.322-.967c.326-.982.492-2.003.492-3.036 0-1.275-.255-2.49-.708-3.604h27.708v34h-14.22zm-28.822-1.582-1.597.799-1.059-2.522.293-.049zm6.17-1.787.285.036-1.07 2.55-1.597-.799zm.528-1.949-.361-1.445c1.608-1.078 2.796-2.725 3.294-4.648h.263v6.492zm3.196-12.093c1.103 0 2 .897 2 2s-.897 2-2 2zm-14 4v-5c0-1.654 1.346-3 3-3h1.084c.428 2.274 2.428 4 4.824 4h3.092v4c0 3.309-2.691 6-6 6s-6-2.691-6-6zm6 8c.914 0 1.79-.162 2.609-.445l.261 1.044-2.87 2.151-2.869-2.152.261-1.044c.819.284 1.694.446 2.608.446zm-7 26v2h-2v-2zm12-7.444c-.591-.344-1.268-.556-2-.556h-8v-8h10zm-2 1.444c1.103 0 2 .897 2 2s-.897 2-2 2h-2v-4zm0 6c.732 0 1.409-.212 2-.556v2.556h-10v-2zm-12 4h8v4h-8zm10 4v-4h8v4zm17.225-14c-1.121 0-2.183-.488-2.913-1.339l-4.312-5.03v-3.631h-2v18h-2v-20h-14v10h-2v-8h-2v8.586l-1.707 1.707 1.414 1.414 1.707-1.707h8.586v4h-10c-2.206 0-4-1.794-4-4v-10.223c0-3.437 2.46-6.34 5.849-6.905l2.575-.429 2.068 4.929 4.508-2.254 4.509 2.254 2.113-5.037 1.33.166c2.15.269 4.086 1.547 5.178 3.419l3.705 6.352-.808 3.503 1.949.449 2.753-11.928 4.078 1.359-2.859 11.439c-.429 1.712-1.96 2.906-3.723 2.906zm24.775-2h-19.258c.047-.141.107-.275.144-.421l.395-1.579h16.719v-38h-30.821c-.547-.757-1.2-1.43-1.94-2h34.761z"/><path d="m47 37h8v2h-8z"/></g></svg>