<?xml version="1.0"?>
<svg xmlns="http://www.w3.org/2000/svg" id="Layer_1" data-name="Layer 1" viewBox="0 0 512 512" width="512" height="512"><path d="M456.4,55H425V39.65A17.47,17.47,0,0,0,407.3,22H375.09A17.8,17.8,0,0,0,357,39.65V55H155V39.65A17.8,17.8,0,0,0,136.91,22H104.7A17.47,17.47,0,0,0,87,39.65V55H55.6A35.292,35.292,0,0,0,20,90.52V454.35A35.4,35.4,0,0,0,55.6,490H415.83a5.839,5.839,0,0,0,4.651-2.035l70.371-86.522a5.591,5.591,0,0,0,1.148-3.7V90.52A35.292,35.292,0,0,0,456.4,55ZM369,39.65A5.8,5.8,0,0,1,375.09,34H407.3a5.466,5.466,0,0,1,5.7,5.65V87H369Zm-270,0A5.466,5.466,0,0,1,104.7,34h32.21A5.8,5.8,0,0,1,143,39.65V87H99ZM422,467.488V402h52.855ZM480,138H121.263a6,6,0,0,0,0,12H480V390H415.83c-3.313,0-5.83,3.1-5.83,6.41V478H55.6A23.391,23.391,0,0,1,32,454.35V150H88.215a6,6,0,0,0,0-12H32V90.52A23.281,23.281,0,0,1,55.6,67H87V93.38A5.437,5.437,0,0,0,92.7,99h56.21c3.314,0,6.09-2.307,6.09-5.62V67H357V93.38c0,3.313,2.776,5.62,6.09,5.62H419.3a5.437,5.437,0,0,0,5.7-5.62V67h31.4A23.281,23.281,0,0,1,480,90.52Z"/><path d="M58,169.84a6,6,0,0,0-6,6v3.6a6,6,0,0,0,12,0v-3.6A6,6,0,0,0,58,169.84Z"/><path d="M58,193.52a6,6,0,0,0-6,6V381.03a6,6,0,0,0,12,0V199.52A6,6,0,0,0,58,193.52Z"/><path d="M178.08,226.48a19.85,19.85,0,1,0-19.85-19.85A19.873,19.873,0,0,0,178.08,226.48Zm0-27.7a7.85,7.85,0,1,1-7.85,7.85A7.859,7.859,0,0,1,178.08,198.78Z"/><path d="M256,226.48a19.85,19.85,0,1,0-19.85-19.85A19.873,19.873,0,0,0,256,226.48Zm0-27.7a7.85,7.85,0,1,1-7.85,7.85A7.859,7.859,0,0,1,256,198.78Z"/><path d="M333.92,226.48a19.85,19.85,0,1,0-19.85-19.85A19.873,19.873,0,0,0,333.92,226.48Zm0-27.7a7.85,7.85,0,1,1-7.85,7.85A7.859,7.859,0,0,1,333.92,198.78Z"/><path d="M411.83,226.48a19.85,19.85,0,1,0-19.85-19.85A19.878,19.878,0,0,0,411.83,226.48Zm0-27.7a7.85,7.85,0,1,1-7.85,7.85A7.864,7.864,0,0,1,411.83,198.78Z"/><path d="M100.17,251.71a19.85,19.85,0,1,0,19.85,19.85A19.878,19.878,0,0,0,100.17,251.71Zm0,27.7a7.85,7.85,0,1,1,7.85-7.85A7.864,7.864,0,0,1,100.17,279.41Z"/><path d="M178.08,291.41a19.85,19.85,0,1,0-19.85-19.85A19.873,19.873,0,0,0,178.08,291.41Zm0-27.7a7.85,7.85,0,1,1-7.85,7.85A7.859,7.859,0,0,1,178.08,263.71Z"/><path d="M256,291.41a19.85,19.85,0,1,0-19.85-19.85A19.873,19.873,0,0,0,256,291.41Zm0-27.7a7.85,7.85,0,1,1-7.85,7.85A7.859,7.859,0,0,1,256,263.71Z"/><path d="M333.92,291.41a19.85,19.85,0,1,0-19.85-19.85A19.873,19.873,0,0,0,333.92,291.41Zm0-27.7a7.85,7.85,0,1,1-7.85,7.85A7.859,7.859,0,0,1,333.92,263.71Z"/><path d="M411.83,291.41a19.85,19.85,0,1,0-19.85-19.85A19.878,19.878,0,0,0,411.83,291.41Zm0-27.7a7.85,7.85,0,1,1-7.85,7.85A7.864,7.864,0,0,1,411.83,263.71Z"/><path d="M100.17,316.64a19.855,19.855,0,1,0,19.85,19.85A19.878,19.878,0,0,0,100.17,316.64Zm0,27.71a7.855,7.855,0,1,1,7.85-7.86A7.869,7.869,0,0,1,100.17,344.35Z"/><path d="M178.08,356.35a19.855,19.855,0,1,0-19.85-19.86A19.878,19.878,0,0,0,178.08,356.35Zm0-27.71a7.855,7.855,0,1,1-7.85,7.85A7.86,7.86,0,0,1,178.08,328.64Z"/><path d="M256,356.35a19.855,19.855,0,1,0-19.85-19.86A19.878,19.878,0,0,0,256,356.35Zm0-27.71a7.855,7.855,0,1,1-7.85,7.85A7.86,7.86,0,0,1,256,328.64Z"/><path d="M333.92,316.64a19.855,19.855,0,1,0,19.85,19.85A19.873,19.873,0,0,0,333.92,316.64Zm0,27.71a7.855,7.855,0,1,1,7.85-7.86A7.864,7.864,0,0,1,333.92,344.35Z"/><path d="M411.83,356.35a19.855,19.855,0,1,0-19.85-19.86A19.882,19.882,0,0,0,411.83,356.35Zm0-27.71a7.855,7.855,0,1,1-7.85,7.85A7.864,7.864,0,0,1,411.83,328.64Z"/><path d="M100.17,381.57a19.855,19.855,0,1,0,19.85,19.85A19.878,19.878,0,0,0,100.17,381.57Zm0,27.71a7.855,7.855,0,1,1,7.85-7.86A7.869,7.869,0,0,1,100.17,409.28Z"/><path d="M178.08,421.28a19.855,19.855,0,1,0-19.85-19.86A19.878,19.878,0,0,0,178.08,421.28Zm0-27.71a7.855,7.855,0,1,1-7.85,7.85A7.859,7.859,0,0,1,178.08,393.57Z"/><path d="M256,421.28a19.855,19.855,0,1,0-19.85-19.86A19.878,19.878,0,0,0,256,421.28Zm0-27.71a7.855,7.855,0,1,1-7.85,7.85A7.859,7.859,0,0,1,256,393.57Z"/><path d="M302,375h63a6,6,0,0,0,6-6V306a6,6,0,0,0-6-6H302a6,6,0,0,0-6,6v63A6,6,0,0,0,302,375Zm6-63h51v51H308Z"/></svg>
