<svg height="512" viewBox="0 0 64 64" width="512" xmlns="http://www.w3.org/2000/svg"><g id="program-code-computer-mouse-keyboard"><path d="m39.55 34a15.04 15.04 0 0 1 -5.81-6h-29.74v3a3.009 3.009 0 0 0 3 3z"/><path d="m23 36h4v4h-4z"/><path d="m32 21a15.01 15.01 0 0 1 13.83-14.94 2.989 2.989 0 0 0 -2.83-2.06h-36a3.009 3.009 0 0 0 -3 3v19h28.88a14.807 14.807 0 0 1 -.88-5z"/><path d="m19 43v1h12v-1a1 1 0 0 0 -1-1h-10a1 1 0 0 0 -1 1z"/><path d="m58 50.18v2.82h-2v-2.82a3.01 3.01 0 0 0 -2 2.82v4a3 3 0 0 0 6 0v-4a3.01 3.01 0 0 0 -2-2.82z"/><path d="m34 21a13 13 0 1 0 13-13 13.012 13.012 0 0 0 -13 13zm16.445-3.168 1.11-1.664 6 4a1 1 0 0 1 0 1.664l-6 4-1.11-1.664 4.755-3.168zm-3.425-2.032 1.96.392-2 10-1.96-.392zm-3.465 2.028-4.755 3.172 4.752 3.168-1.11 1.664-6-4a1 1 0 0 1 0-1.664l6-4z"/><path d="m56 46v2h2v-2a3 3 0 0 0 -3-3h-6a1 1 0 0 1 -1-1v-6h-2v6a3 3 0 0 0 3 3h6a1 1 0 0 1 1 1z"/><path d="m41 49h-32a4 4 0 0 0 -4 4v4a4 4 0 0 0 4 4h32a4 4 0 0 0 4-4v-4a4 4 0 0 0 -4-4zm-17 3h2v2h-2zm-4 0h2v2h-2zm-10 6h-2v-2h2zm0-4h-2v-2h2zm4 4h-2v-2h2zm0-4h-2v-2h2zm4 4h-2v-2h2zm0-4h-2v-2h2zm12 4h-10v-2h10zm0-4h-2v-2h2zm4 4h-2v-2h2zm0-4h-2v-2h2zm4 4h-2v-2h2zm0-4h-2v-2h2zm4 4h-2v-2h2zm0-4h-2v-2h2z"/></g></svg>